{
  "accessors": [
    {
      "bufferView": 2,
      "componentType": 5126,
      "count": 625,
      "max": [
        0.5,
        0.20000000298023224,
        0.5
      ],
      "min": [
        -0.5,
        -0.20000000298023224,
        -0.5
      ],
      "type": "VEC3"
    },
    {
      "bufferView": 2,
      "byteOffset": 7500,
      "componentType": 5126,
      "count": 625,
      "max": [
        1,
        1,
        1
      ],
      "min": [
        -1,
        -1,
        -1
      ],
      "type": "VEC3"
    },
    {
      "bufferView": 1,
      "componentType": 5126,
      "count": 625,
      "max": [
        1,
        1
      ],
      "min": [
        0,
        0
      ],
      "type": "VEC2"
    },
    {
      "bufferView": 0,
      "componentType": 5125,
      "count": 3456,
      "max": [
        624
      ],
      "min": [
        0
      ],
      "type": "SCALAR"
    },
    {
      "bufferView": 2,
      "byteOffset": 15000,
      "componentType": 5126,
      "count": 124,
      "max": [
        0.5,
        0.5,
        0.5
      ],
      "min": [
        -0.5,
        -0.5,
        -0.5
      ],
      "type": "VEC3"
    },
    {
      "bufferView": 2,
      "byteOffset": 16488,
      "componentType": 5126,
      "count": 124,
      "max": [
        0.89442729949951172,
        1,
        0.89442729949951172
      ],
      "min": [
        -0.89442729949951172,
        -1,
        -0.89442729949951172
      ],
      "type": "VEC3"
    },
    {
      "bufferView": 1,
      "byteOffset": 5000,
      "componentType": 5126,
      "count": 124,
      "max": [
        1,
        1
      ],
      "min": [
        0,
        0
      ],
      "type": "VEC2"
    },
    {
      "bufferView": 0,
      "byteOffset": 13824,
      "componentType": 5125,
      "count": 432,
      "max": [
        123
      ],
      "min": [
        0
      ],
      "type": "SCALAR"
    },
    {
      "bufferView": 2,
      "byteOffset": 17976,
      "componentType": 5126,
      "count": 124,
      "max": [
        0.5,
        0.5,
        0.5
      ],
      "min": [
        -0.5,
        -0.5,
        -0.5
      ],
      "type": "VEC3"
    },
    {
      "bufferView": 2,
      "byteOffset": 19464,
      "componentType": 5126,
      "count": 124,
      "max": [
        0.89442729949951172,
        1,
        0.89442729949951172
      ],
      "min": [
        -0.89442729949951172,
        -1,
        -0.89442729949951172
      ],
      "type": "VEC3"
    },
    {
      "bufferView": 1,
      "byteOffset": 5992,
      "componentType": 5126,
      "count": 124,
      "max": [
        1,
        1
      ],
      "min": [
        0,
        0
      ],
      "type": "VEC2"
    },
    {
      "bufferView": 0,
      "byteOffset": 15552,
      "componentType": 5125,
      "count": 432,
      "max": [
        123
      ],
      "min": [
        0
      ],
      "type": "SCALAR"
    }
  ],
  "asset": {
    "extras": {
      "author": "ChocoBun (https://sketchfab.com/ChocoBun)",
      "license": "CC-BY-4.0 (http://creativecommons.org/licenses/by/4.0/)",
      "source": "https://sketchfab.com/3d-models/mysterious-bow-tie-aa9144f44d3048998ee746f2cff3a024",
      "title": "Mysterious Bow Tie"
    },
    "generator": "Sketchfab-8.87.0",
    "version": "2.0"
  },
  "bufferViews": [
    {
      "buffer": 0,
      "byteLength": 17280,
      "byteOffset": 0,
      "name": "floatBufferViews",
      "target": 34963
    },
    {
      "buffer": 0,
      "byteLength": 6984,
      "byteOffset": 17280,
      "byteStride": 8,
      "name": "floatBufferViews",
      "target": 34962
    },
    {
      "buffer": 0,
      "byteLength": 20952,
      "byteOffset": 24264,
      "byteStride": 12,
      "name": "floatBufferViews",
      "target": 34962
    }
  ],
  "buffers": [
    {
      "byteLength": 45216,
      "uri": "scene.bin"
    }
  ],
  "extensionsRequired": [
    "KHR_materials_pbrSpecularGlossiness"
  ],
  "extensionsUsed": [
    "KHR_materials_pbrSpecularGlossiness"
  ],
  "images": [
    {
      "uri": "textures/Scene_-_Root_specularGlossiness.png"
    }
  ],
  "materials": [
    {
      "doubleSided": true,
      "extensions": {
        "KHR_materials_pbrSpecularGlossiness": {
          "diffuseFactor": [
            0.028863290822882727,
            0.0023548954062749205,
            0.026924733969074199,
            1
          ],
          "glossinessFactor": 1,
          "specularFactor": [
            0.026123867092707108,
            0,
            0.014899304189858142
          ],
          "specularGlossinessTexture": {
            "index": 0,
            "texCoord": 0
          }
        }
      },
      "name": "Scene_-_Root"
    }
  ],
  "meshes": [
    {
      "name": "Torus__0",
      "primitives": [
        {
          "attributes": {
            "NORMAL": 1,
            "POSITION": 0,
            "TEXCOORD_0": 2
          },
          "indices": 3,
          "material": 0,
          "mode": 4
        }
      ]
    },
    {
      "name": "Cone__0",
      "primitives": [
        {
          "attributes": {
            "NORMAL": 5,
            "POSITION": 4,
            "TEXCOORD_0": 6
          },
          "indices": 7,
          "material": 0,
          "mode": 4
        }
      ]
    },
    {
      "name": "Cone1__0",
      "primitives": [
        {
          "attributes": {
            "NORMAL": 9,
            "POSITION": 8,
            "TEXCOORD_0": 10
          },
          "indices": 11,
          "material": 0,
          "mode": 4
        }
      ]
    }
  ],
  "nodes": [
    {
      "children": [
        1
      ],
      "name": "RootNode (gltf orientation matrix)",
      "rotation": [
        -0.70710678118654746,
        -0,
        -0,
        0.70710678118654757
      ]
    },
    {
      "children": [
        2
      ],
      "matrix": [
        0.92575985193252563,
        -0.36995828151702881,
        0.078099653124809265,
        0,
        0.10497128218412399,
        0.053034506738185883,
        -0.99306011199951172,
        0,
        0.36324882507324219,
        0.92753338813781738,
        0.087932214140892029,
        0,
        -0.0096670705825090408,
        -0.022860068827867508,
        -0.26642903685569763,
        1
      ],
      "name": "RootNode (model correction matrix)"
    },
    {
      "children": [
        3
      ],
      "matrix": [
        1,
        0,
        0,
        0,
        0,
        0,
        1,
        0,
        0,
        -1,
        0,
        0,
        0,
        0,
        0,
        1
      ],
      "name": "mysterious bow tie.fbx"
    },
    {
      "children": [
        4
      ],
      "name": "RootNode"
    },
    {
      "children": [
        5,
        7,
        9
      ],
      "matrix": [
        1,
        0,
        0,
        0,
        0,
        1,
        0,
        0,
        0,
        0,
        1,
        0,
        0.0071000000461935997,
        0.018999999389052391,
        0,
        1
      ],
      "name": "Group"
    },
    {
      "children": [
        6
      ],
      "matrix": [
        0.010353951993399411,
        0.88963974602215734,
        0,
        0,
        -1.9830657731358192,
        0.0230796430876756,
        0,
        0,
        0,
        0,
        0.555899977684021,
        0,
        -0.0071000000461935997,
        -0.018999999389052391,
        0,
        1
      ],
      "name": "Torus"
    },
    {
      "mesh": 0,
      "name": "Torus__0"
    },
    {
      "children": [
        8
      ],
      "matrix": [
        0.62767502872592917,
        -1.3720427210460895,
        0,
        0,
        1.3720427210460895,
        0.62767502872592917,
        0,
        0,
        0,
        0,
        0.92269998788833618,
        0,
        -0.56169998645782471,
        0.0095000006258487701,
        0,
        1
      ],
      "name": "Cone"
    },
    {
      "mesh": 1,
      "name": "Cone__0"
    },
    {
      "children": [
        10
      ],
      "matrix": [
        0.62050403784902408,
        1.3753007921180935,
        0,
        0,
        -1.3753007921180935,
        0.62050403784902408,
        0,
        0,
        0,
        0,
        0.92269998788833618,
        0,
        0.56880003213882446,
        0.0095000006258487701,
        0,
        1
      ],
      "name": "Cone1"
    },
    {
      "mesh": 2,
      "name": "Cone1__0"
    }
  ],
  "samplers": [
    {
      "magFilter": 9729,
      "minFilter": 9987,
      "wrapS": 10497,
      "wrapT": 10497
    }
  ],
  "scene": 0,
  "scenes": [
    {
      "name": "OSG_Scene",
      "nodes": [
        0
      ]
    }
  ],
  "textures": [
    {
      "sampler": 0,
      "source": 0
    }
  ]
}

